<svg width="45" height="40" viewBox="0 0 45 40" fill="none" xmlns="http://www.w3.org/2000/svg">
<path d="M8.28125 23.4453V25H2.57031V23.4453H8.28125ZM3.11719 13.625V25H1.15625V13.625H3.11719ZM9.25 20.8672V20.6875C9.25 20.0781 9.33854 19.513 9.51562 18.9922C9.69271 18.4661 9.94792 18.0104 10.2812 17.625C10.6198 17.2344 11.0312 16.9323 11.5156 16.7188C12.0052 16.5 12.5573 16.3906 13.1719 16.3906C13.7917 16.3906 14.3438 16.5 14.8281 16.7188C15.3177 16.9323 15.7318 17.2344 16.0703 17.625C16.4089 18.0104 16.6667 18.4661 16.8438 18.9922C17.0208 19.513 17.1094 20.0781 17.1094 20.6875V20.8672C17.1094 21.4766 17.0208 22.0417 16.8438 22.5625C16.6667 23.0833 16.4089 23.5391 16.0703 23.9297C15.7318 24.3151 15.3203 24.6172 14.8359 24.8359C14.3516 25.0495 13.8021 25.1562 13.1875 25.1562C12.5677 25.1562 12.013 25.0495 11.5234 24.8359C11.0391 24.6172 10.6276 24.3151 10.2891 23.9297C9.95052 23.5391 9.69271 23.0833 9.51562 22.5625C9.33854 22.0417 9.25 21.4766 9.25 20.8672ZM11.1328 20.6875V20.8672C11.1328 21.2474 11.1719 21.6068 11.25 21.9453C11.3281 22.2839 11.4505 22.5807 11.6172 22.8359C11.7839 23.0911 11.9974 23.2917 12.2578 23.4375C12.5182 23.5833 12.8281 23.6562 13.1875 23.6562C13.5365 23.6562 13.8385 23.5833 14.0938 23.4375C14.3542 23.2917 14.5677 23.0911 14.7344 22.8359C14.901 22.5807 15.0234 22.2839 15.1016 21.9453C15.1849 21.6068 15.2266 21.2474 15.2266 20.8672V20.6875C15.2266 20.3125 15.1849 19.9583 15.1016 19.625C15.0234 19.2865 14.8984 18.987 14.7266 18.7266C14.5599 18.4661 14.3464 18.263 14.0859 18.1172C13.8307 17.9661 13.526 17.8906 13.1719 17.8906C12.8177 17.8906 12.5104 17.9661 12.25 18.1172C11.9948 18.263 11.7839 18.4661 11.6172 18.7266C11.4505 18.987 11.3281 19.2865 11.25 19.625C11.1719 19.9583 11.1328 20.3125 11.1328 20.6875ZM24.1016 16.5469H25.8125V24.7656C25.8125 25.526 25.651 26.1719 25.3281 26.7031C25.0052 27.2344 24.5547 27.638 23.9766 27.9141C23.3984 28.1953 22.7292 28.3359 21.9688 28.3359C21.6458 28.3359 21.2865 28.2891 20.8906 28.1953C20.5 28.1016 20.1198 27.9505 19.75 27.7422C19.3854 27.5391 19.0807 27.2708 18.8359 26.9375L19.7188 25.8281C20.0208 26.1875 20.3542 26.4505 20.7188 26.6172C21.0833 26.7839 21.4661 26.8672 21.8672 26.8672C22.2995 26.8672 22.6667 26.7865 22.9688 26.625C23.276 26.4688 23.513 26.237 23.6797 25.9297C23.8464 25.6224 23.9297 25.2474 23.9297 24.8047V18.4609L24.1016 16.5469ZM18.3594 20.8672V20.7031C18.3594 20.0625 18.4375 19.4792 18.5938 18.9531C18.75 18.4219 18.974 17.9661 19.2656 17.5859C19.5573 17.2005 19.9115 16.9062 20.3281 16.7031C20.7448 16.4948 21.2161 16.3906 21.7422 16.3906C22.2891 16.3906 22.7552 16.4896 23.1406 16.6875C23.5312 16.8854 23.8568 17.1693 24.1172 17.5391C24.3776 17.9036 24.5807 18.3411 24.7266 18.8516C24.8776 19.3568 24.9896 19.9193 25.0625 20.5391V21.0625C24.9948 21.6667 24.8802 22.2188 24.7188 22.7188C24.5573 23.2188 24.3438 23.651 24.0781 24.0156C23.8125 24.3802 23.4844 24.6615 23.0938 24.8594C22.7083 25.0573 22.2526 25.1562 21.7266 25.1562C21.2109 25.1562 20.7448 25.0495 20.3281 24.8359C19.9167 24.6224 19.5625 24.3229 19.2656 23.9375C18.974 23.5521 18.75 23.099 18.5938 22.5781C18.4375 22.0521 18.3594 21.4818 18.3594 20.8672ZM20.2422 20.7031V20.8672C20.2422 21.2526 20.2786 21.612 20.3516 21.9453C20.4297 22.2786 20.5469 22.5729 20.7031 22.8281C20.8646 23.0781 21.0677 23.276 21.3125 23.4219C21.5625 23.5625 21.8568 23.6328 22.1953 23.6328C22.638 23.6328 23 23.5391 23.2812 23.3516C23.5677 23.1641 23.7865 22.9115 23.9375 22.5938C24.0938 22.2708 24.2031 21.9115 24.2656 21.5156V20.1016C24.2344 19.7943 24.1693 19.5078 24.0703 19.2422C23.9766 18.9766 23.849 18.7448 23.6875 18.5469C23.526 18.3438 23.3229 18.1875 23.0781 18.0781C22.8333 17.9635 22.5443 17.9062 22.2109 17.9062C21.8724 17.9062 21.5781 17.9792 21.3281 18.125C21.0781 18.2708 20.8724 18.4714 20.7109 18.7266C20.5547 18.9818 20.4375 19.2786 20.3594 19.6172C20.2812 19.9557 20.2422 20.3177 20.2422 20.7031ZM34.0312 13.625V25H32.0703V13.625H34.0312ZM38.1484 18.3516V25H36.2656V16.5469H38.0391L38.1484 18.3516ZM37.8125 20.4609L37.2031 20.4531C37.2083 19.8542 37.2917 19.3047 37.4531 18.8047C37.6198 18.3047 37.849 17.875 38.1406 17.5156C38.4375 17.1562 38.7917 16.8802 39.2031 16.6875C39.6146 16.4896 40.0729 16.3906 40.5781 16.3906C40.9844 16.3906 41.3516 16.4479 41.6797 16.5625C42.013 16.6719 42.2969 16.8516 42.5312 17.1016C42.7708 17.3516 42.9531 17.6771 43.0781 18.0781C43.2031 18.474 43.2656 18.9609 43.2656 19.5391V25H41.375V19.5312C41.375 19.125 41.3151 18.8047 41.1953 18.5703C41.0807 18.3307 40.9115 18.1615 40.6875 18.0625C40.4688 17.9583 40.1953 17.9062 39.8672 17.9062C39.5443 17.9062 39.2552 17.974 39 18.1094C38.7448 18.2448 38.5286 18.4297 38.3516 18.6641C38.1797 18.8984 38.0469 19.1693 37.9531 19.4766C37.8594 19.7839 37.8125 20.112 37.8125 20.4609Z" fill="#6D6D6D"/>
</svg>
