<svg width="190" height="39" viewBox="0 0 190 39" fill="none" xmlns="http://www.w3.org/2000/svg">
<path d="M18.0078 21.9766H14.75C14.75 25.6953 14.8281 29.6328 14.9844 33.7891C14.9844 33.8828 15.0234 33.9688 15.1016 34.0469C15.1797 34.125 15.2891 34.2031 15.4297 34.2812C15.5859 34.3594 15.8438 34.4609 16.2031 34.5859C16.5625 34.7109 17.2891 34.8516 18.3828 35.0078C19.4766 35.1484 20.1016 35.2344 20.2578 35.2656C20.5234 36.1406 20.4766 37.1016 20.1172 38.1484C14.3516 38.0234 10.8516 37.9609 9.61719 37.9609C8.77344 37.9609 5.82812 38.0234 0.78125 38.1484C0.390625 37.0703 0.390625 36.0625 0.78125 35.125C4.17188 34.7812 5.88281 34.3203 5.91406 33.7422C6.10156 29.8359 6.19531 24.9219 6.19531 19C6.19531 13.9688 6.11719 9.61719 5.96094 5.94531C5.92969 5.36719 4.1875 4.90625 0.734375 4.5625C0.4375 3.46875 0.46875 2.46094 0.828125 1.53906C5.625 1.69531 8.80469 1.77344 10.3672 1.77344H32.0703C32.4609 4.83594 33.6797 8.0625 35.7266 11.4531C35.3672 12.2031 34.5312 12.8125 33.2188 13.2812C31.9375 10.9531 30.0469 9.01562 27.5469 7.46875C25.0625 5.90625 21.8359 5.125 17.8672 5.125H14.9844C14.8281 10.7344 14.75 15.0391 14.75 18.0391C15.5156 18.0703 16.6172 18.0859 18.0547 18.0859C19.3672 18.0859 20.4141 17.6484 21.1953 16.7734C21.9766 15.8828 22.8359 14.5 23.7734 12.625L24.7812 10.6562C26.0938 11.125 26.9219 11.7266 27.2656 12.4609C25.6094 15.4453 24.7812 17.8984 24.7812 19.8203C24.7812 21.8984 25.6094 24.3438 27.2656 27.1562C26.8906 27.9531 26.0938 28.5625 24.875 28.9844C24.5156 28.5 24.1016 27.7656 23.6328 26.7812C22.9922 25.7188 22.4844 24.9297 22.1094 24.4141C21.7344 23.8828 21.1797 23.3516 20.4453 22.8203C19.7109 22.2891 18.8984 22.0078 18.0078 21.9766ZM11.1406 20.5938L17.8203 20.5469C18.4922 20.5469 19.125 20.6562 19.7188 20.875C20.3125 21.0938 20.7812 21.3203 21.125 21.5547C21.4844 21.7734 21.8906 22.2031 22.3438 22.8438C22.8125 23.4844 23.1406 23.9531 23.3281 24.25C23.5312 24.5312 23.8594 25.125 24.3125 26.0312C24.7812 26.9375 25.0938 27.5234 25.25 27.7891C25.7344 27.5859 26.0391 27.375 26.1641 27.1562C24.6016 24.375 23.8203 21.9297 23.8203 19.8203C23.8203 18.8516 24.0391 17.6719 24.4766 16.2812C24.9297 14.8906 25.4922 13.6172 26.1641 12.4609C26.1016 12.2422 25.7969 12.0391 25.25 11.8516C25.125 12.0703 24.875 12.5391 24.5 13.2578C24.1406 13.9766 23.9062 14.4453 23.7969 14.6641C23.6875 14.8672 23.4609 15.25 23.1172 15.8125C22.7891 16.375 22.5234 16.75 22.3203 16.9375C22.1328 17.125 21.8516 17.4062 21.4766 17.7812C21.1172 18.1406 20.7656 18.3906 20.4219 18.5312C20.0938 18.6562 19.7031 18.7734 19.25 18.8828C18.7969 18.9922 18.3203 19.0469 17.8203 19.0469C14.8984 19.0469 12.6719 19.0156 11.1406 18.9531C11.1406 15.1719 11.2344 10.2422 11.4219 4.16406H17.9141C25.5547 4.16406 30.8047 6.80469 33.6641 12.0859C34.0703 11.9297 34.3359 11.7188 34.4609 11.4531C32.8984 8.26562 31.1484 6.01562 29.2109 4.70312C27.2734 3.39062 24.3828 2.73438 20.5391 2.73438H9.71094C7.75781 2.73438 5.01562 2.67187 1.48438 2.54688V3.64844C5.07812 3.99219 6.89062 4.74219 6.92188 5.89844C7.07812 9.57031 7.15625 13.9375 7.15625 19C7.15625 23.9531 7.0625 28.8828 6.875 33.7891C6.84375 34.9453 5.03125 35.6953 1.4375 36.0391C1.3125 36.2891 1.3125 36.6562 1.4375 37.1406C4.09375 37.0469 6.82031 37 9.61719 37C12.9453 37 16.1406 37.0469 19.2031 37.1406C19.3281 36.8906 19.3281 36.5234 19.2031 36.0391C14.0469 35.7266 11.4375 34.9766 11.375 33.7891C11.2188 30.1016 11.1406 25.7031 11.1406 20.5938ZM44.4688 19.9609C45.2031 20.0859 45.7812 20.375 46.2031 20.8281C46.6406 21.2656 46.8594 21.8281 46.8594 22.5156C46.8594 23.3438 46.5859 24.0312 46.0391 24.5781C45.4922 25.1094 44.7734 25.375 43.8828 25.375C42.9609 25.375 42.125 25.0469 41.375 24.3906C40.625 23.7344 40.25 22.8047 40.25 21.6016C40.25 19.5547 41.2188 17.8984 43.1562 16.6328C45.1094 15.3672 47.6562 14.7344 50.7969 14.7344C53.7812 14.7344 55.875 15.3359 57.0781 16.5391C58.2969 17.7266 58.9062 19.7344 58.9062 22.5625V30.7656L60.4062 30.7188C61.6875 30.8125 62.5781 31.4219 63.0781 32.5469L62.3281 33.8359C61.8438 34.5703 61.4375 35.1406 61.1094 35.5469C60.7969 35.9375 60.3438 36.3828 59.75 36.8828C59.1562 37.3828 58.4609 37.7422 57.6641 37.9609C56.8672 38.1797 55.9375 38.2891 54.875 38.2891C53.5625 38.2891 52.5703 37.7969 51.8984 36.8125C50.2109 38.0312 48.0078 38.6406 45.2891 38.6406C44.1016 38.6406 43.0859 38.4531 42.2422 38.0781C41.4141 37.7188 40.8047 37.2344 40.4141 36.625C40.0391 36.0156 39.7734 35.4453 39.6172 34.9141C39.4609 34.3828 39.3828 33.8438 39.3828 33.2969C39.3828 31 40.1562 29.2812 41.7031 28.1406C43.25 27 46.375 25.8281 51.0781 24.625V22.0703C51.0781 20.8203 50.8125 19.9062 50.2812 19.3281C49.7656 18.75 49.0938 18.4609 48.2656 18.4609C46.5 18.4609 45.2344 18.9609 44.4688 19.9609ZM52.0391 26.8281V31.7266C50.5391 33.7109 49.0078 34.7031 47.4453 34.7031C46.5391 34.7031 45.7969 34.4844 45.2188 34.0469C44.6562 33.6094 44.375 32.9922 44.375 32.1953C44.375 30.9141 44.8984 29.8594 45.9453 29.0312C47.0078 28.2031 49.0391 27.4688 52.0391 26.8281ZM51.0781 31.4219V28.5625C48.8125 29.3906 47.6797 30.6016 47.6797 32.1953C47.6797 32.8672 47.9219 33.3359 48.4062 33.6016C49.2344 33.3047 50.125 32.5781 51.0781 31.4219ZM43.8828 23.3125C43.3359 23.3125 42.9531 22.9141 42.7344 22.1172C42.4219 20.8359 42.8047 19.7188 43.8828 18.7656C44.9453 17.8281 46.5469 17.3594 48.6875 17.3594C49.7031 17.3594 50.5156 17.7578 51.125 18.5547C51.7344 19.3359 52.0391 20.5078 52.0391 22.0703V25.3281C47.4297 26.5156 44.3281 27.6406 42.7344 28.7031C41.1406 29.75 40.3438 31.2812 40.3438 33.2969C40.3438 34.3594 40.7031 35.3594 41.4219 36.2969C42.1406 37.2188 43.4297 37.6797 45.2891 37.6797C46.0234 37.6797 46.7109 37.5625 47.3516 37.3281C48.0078 37.0938 48.6797 36.7188 49.3672 36.2031C50.0703 35.6719 50.5 35.3359 50.6562 35.1953C50.8125 35.0547 51.0703 34.8125 51.4297 34.4688C51.8047 34.1094 52.0078 33.9141 52.0391 33.8828C52.2422 36.1797 53.1875 37.3281 54.875 37.3281C55.2969 37.3281 55.7812 37.2188 56.3281 37C56.875 36.7812 57.4219 36.3516 57.9688 35.7109C58.5312 35.0703 58.8828 34.6484 59.0234 34.4453C59.1797 34.2266 59.4062 33.8906 59.7031 33.4375C60 32.9688 60.2188 32.6484 60.3594 32.4766C60.1562 32.0391 59.7656 31.7891 59.1875 31.7266C58.3281 33.0391 57.4531 33.6797 56.5625 33.6484C55.9219 33.6172 55.6016 33.1641 55.6016 32.2891V22.5625C55.6016 20.0625 55.1094 18.2969 54.125 17.2656C53.1562 16.2188 51.4844 15.6953 49.1094 15.6953C46.9688 15.6953 45.1094 16.25 43.5312 17.3594C41.9688 18.4531 41.1875 19.8672 41.1875 21.6016C41.1875 22.4922 41.4609 23.1875 42.0078 23.6875C42.5547 24.1719 43.1797 24.4141 43.8828 24.4141C44.1016 24.1016 44.1016 23.7344 43.8828 23.3125ZM72.2656 4.07031C75.7969 4.07031 77.5625 5.35156 77.5625 7.91406C77.5625 10.4766 75.7969 11.7578 72.2656 11.7578C71.7344 11.7578 71.2344 11.6562 70.7656 11.4531C70.3125 11.25 69.9141 10.9766 69.5703 10.6328C69.2266 10.2734 68.9531 9.85938 68.75 9.39062C68.5469 8.92188 68.4453 8.42969 68.4453 7.91406C68.4453 7.39844 68.5469 6.90625 68.75 6.4375C68.9531 5.96875 69.2266 5.5625 69.5703 5.21875C69.9141 4.85938 70.3125 4.57812 70.7656 4.375C71.2344 4.17188 71.7344 4.07031 72.2656 4.07031ZM70.1094 5.89844C69.6406 6.44531 69.4062 7.11719 69.4062 7.91406C69.4062 8.32031 69.4688 8.70312 69.5938 9.0625C69.7344 9.40625 69.9219 9.71094 70.1562 9.97656C70.3906 10.2266 70.6562 10.4297 70.9531 10.5859C71.2656 10.7266 71.5938 10.7969 71.9375 10.7969C72.2656 10.7969 72.5859 10.7266 72.8984 10.5859C73.2109 10.4297 73.4844 10.2266 73.7188 9.97656C73.9531 9.71094 74.1406 9.40625 74.2812 9.0625C74.4219 8.70312 74.4922 8.32031 74.4922 7.91406C74.4922 7.50781 74.4219 7.13281 74.2812 6.78906C74.1406 6.42969 73.9531 6.125 73.7188 5.875C73.4844 5.60938 73.2109 5.40625 72.8984 5.26562C72.5859 5.10938 72.2656 5.03125 71.9375 5.03125C71.6094 5.03125 71.2891 5.10156 70.9766 5.24219C70.6641 5.38281 70.375 5.60156 70.1094 5.89844ZM79.5781 35.9219C75.8594 35.5781 73.9844 34.8281 73.9531 33.6719C73.7969 28.9844 73.7344 23.2266 73.7656 16.3984C73.6406 16.1484 73.3672 15.9453 72.9453 15.7891C70.7734 16.8047 68.5156 17.4453 66.1719 17.7109C66.0781 18.0859 66.0781 18.4531 66.1719 18.8125C67.9375 18.9062 69.2812 19.2266 70.2031 19.7734C70.3438 25.6016 70.3281 30.2344 70.1562 33.6719C70.125 34.8281 68.7969 35.5781 66.1719 35.9219C66.0156 36.3125 66.0156 36.6953 66.1719 37.0703C70.6562 36.9766 75.125 36.9766 79.5781 37.0703C79.7344 36.6953 79.7344 36.3125 79.5781 35.9219ZM80.4453 35.0547C80.6953 36.0234 80.6953 36.9688 80.4453 37.8906C75.4141 37.7344 70.375 37.7344 65.3281 37.8906C65.0625 36.9688 65.0625 36.0234 65.3281 35.0547C67.875 34.8047 69.1641 34.3281 69.1953 33.625C69.3984 29.25 69.4141 24.8203 69.2422 20.3359C68.1953 20.0234 66.8906 19.8203 65.3281 19.7266C64.9688 18.7891 64.9688 17.7969 65.3281 16.75C67.6875 16.625 70.3438 15.9219 73.2969 14.6406C74.9844 14.7656 76.2422 15.2734 77.0703 16.1641C77.0078 23.8516 77.0703 29.6719 77.2578 33.625C77.3047 34.3281 78.3672 34.8047 80.4453 35.0547ZM97.625 35.9219C93.9062 35.5781 92.0312 34.8281 92 33.6719C91.8438 25.0156 91.7812 14.4609 91.8125 2.00781C91.6875 1.75781 91.4141 1.54687 90.9922 1.375C88.8203 2.40625 86.5625 3.04687 84.2188 3.29688C84.125 3.6875 84.125 4.05469 84.2188 4.39844C85.9844 4.50781 87.3281 4.82812 88.25 5.35938C88.375 17.1094 88.3594 26.5469 88.2031 33.6719C88.1719 34.8281 86.8438 35.5781 84.2188 35.9219C84.0625 36.3125 84.0625 36.6953 84.2188 37.0703C87.8438 36.9453 92.3125 36.9453 97.625 37.0703C97.7812 36.6953 97.7812 36.3125 97.625 35.9219ZM98.4688 35.0547C98.7344 36.0234 98.7344 36.9688 98.4688 37.8906C92.4531 37.7656 87.4141 37.7656 83.3516 37.8906C83.1016 36.9688 83.1016 36.0234 83.3516 35.0547C85.9141 34.8047 87.2109 34.3281 87.2422 33.625C87.4297 24.4531 87.4453 15.2266 87.2891 5.94531C86.2422 5.61719 84.9297 5.40625 83.3516 5.3125C83.0078 4.39062 83.0078 3.39844 83.3516 2.33594C85.7266 2.21094 88.3828 1.50781 91.3203 0.226562C93.0234 0.351562 94.2891 0.867187 95.1172 1.77344C95.0547 15.6953 95.1172 26.3125 95.3047 33.625C95.3359 34.3281 96.3906 34.8047 98.4688 35.0547ZM115.672 35.9219C111.953 35.5781 110.078 34.8281 110.047 33.6719C109.891 25.0156 109.828 14.4609 109.859 2.00781C109.734 1.75781 109.461 1.54687 109.039 1.375C106.867 2.40625 104.609 3.04687 102.266 3.29688C102.172 3.6875 102.172 4.05469 102.266 4.39844C104.031 4.50781 105.375 4.82812 106.297 5.35938C106.422 17.1094 106.406 26.5469 106.25 33.6719C106.219 34.8281 104.891 35.5781 102.266 35.9219C102.109 36.3125 102.109 36.6953 102.266 37.0703C105.891 36.9453 110.359 36.9453 115.672 37.0703C115.828 36.6953 115.828 36.3125 115.672 35.9219ZM116.516 35.0547C116.781 36.0234 116.781 36.9688 116.516 37.8906C110.5 37.7656 105.461 37.7656 101.398 37.8906C101.148 36.9688 101.148 36.0234 101.398 35.0547C103.961 34.8047 105.258 34.3281 105.289 33.625C105.477 24.4531 105.492 15.2266 105.336 5.94531C104.289 5.61719 102.977 5.40625 101.398 5.3125C101.055 4.39062 101.055 3.39844 101.398 2.33594C103.773 2.21094 106.43 1.50781 109.367 0.226562C111.07 0.351562 112.336 0.867187 113.164 1.77344C113.102 15.6953 113.164 26.3125 113.352 33.625C113.383 34.3281 114.438 34.8047 116.516 35.0547ZM131.211 17.2188C132.461 17.2188 133.367 17.625 133.93 18.4375C134.492 19.2344 134.773 20.2344 134.773 21.4375C134.773 21.8906 134.695 22.4062 134.539 22.9844H125.398C125.883 21.0312 126.664 19.5859 127.742 18.6484C128.836 17.6953 129.992 17.2188 131.211 17.2188ZM125.164 24.5781H137.938C138.188 23.7969 138.312 22.9922 138.312 22.1641C138.312 20.3359 137.789 18.8047 136.742 17.5703C135.711 16.3203 134.062 15.6953 131.797 15.6953C128.844 15.6953 126.359 16.7656 124.344 18.9062C122.328 21.0469 121.32 23.7656 121.32 27.0625C121.32 30.5781 122.281 33.2266 124.203 35.0078C126.125 36.7891 128.383 37.6797 130.977 37.6797C132.898 37.6797 134.68 37.1641 136.32 36.1328C137.977 35.0859 139.188 33.5156 139.953 31.4219C139.734 31.1719 139.43 31 139.039 30.9062C138.977 31 138.789 31.2578 138.477 31.6797C138.18 32.0859 137.961 32.3828 137.82 32.5703C137.68 32.7422 137.422 33 137.047 33.3438C136.688 33.6719 136.336 33.9141 135.992 34.0703C135.664 34.2266 135.242 34.3828 134.727 34.5391C134.211 34.6797 133.648 34.75 133.039 34.75C130.633 34.75 128.719 34.0391 127.297 32.6172C125.875 31.1797 125.133 29.25 125.07 26.8281C125.07 26.2812 125.102 25.5312 125.164 24.5781ZM138.664 29.8047C139.648 30.0234 140.445 30.5156 141.055 31.2812C140.164 33.7188 138.789 35.5547 136.93 36.7891C135.07 38.0234 133.086 38.6406 130.977 38.6406C128.102 38.6406 125.609 37.6719 123.5 35.7344C121.406 33.7969 120.359 30.9062 120.359 27.0625C120.359 23.5781 121.43 20.6562 123.57 18.2969C125.727 15.9219 128.773 14.7344 132.711 14.7344C138.664 14.7344 141.641 17.2109 141.641 22.1641C141.641 23.1328 141.414 24.2578 140.961 25.5391H128.375V27.0625C128.453 28.9531 128.969 30.4922 129.922 31.6797C130.875 32.8516 132.188 33.5391 133.859 33.7422C134.844 33.6484 135.656 33.3125 136.297 32.7344C136.938 32.1562 137.727 31.1797 138.664 29.8047ZM133.812 21.4375C133.812 19.7188 133.234 18.6797 132.078 18.3203C130.703 18.7422 129.68 19.9766 129.008 22.0234H133.766C133.766 21.9609 133.773 21.8672 133.789 21.7422C133.805 21.6172 133.812 21.5156 133.812 21.4375ZM149.844 37.2812C149.094 37.5312 148.359 37.8359 147.641 38.1953C146.906 37.7422 146.422 37.2812 146.188 36.8125C146.219 36.7188 146.266 36.3984 146.328 35.8516C146.391 35.3047 146.453 34.6641 146.516 33.9297C146.594 33.1953 146.656 32.4375 146.703 31.6562C146.75 30.875 146.773 30.2109 146.773 29.6641C147.508 29.3203 148.641 29.1484 150.172 29.1484C150.344 29.1484 150.516 29.1484 150.688 29.1484C150.859 29.1484 151.039 29.1562 151.227 29.1719C152.352 32.8281 153.891 34.8125 155.844 35.125C156.641 35 157.25 34.7109 157.672 34.2578C158.109 33.7891 158.328 33.2656 158.328 32.6875C158.328 32.2656 158.211 31.875 157.977 31.5156C157.742 31.1406 157.43 30.7969 157.039 30.4844C156.648 30.1719 156.188 29.8828 155.656 29.6172C155.141 29.3516 154.594 29.0938 154.016 28.8438C153.438 28.5781 152.852 28.3281 152.258 28.0938C151.664 27.8438 151.094 27.5859 150.547 27.3203C149.969 27.0547 149.422 26.7344 148.906 26.3594C148.391 25.9688 147.938 25.5312 147.547 25.0469C147.156 24.5469 146.844 24 146.609 23.4062C146.391 22.8125 146.281 22.1719 146.281 21.4844C146.281 20.75 146.406 19.9844 146.656 19.1875C146.906 18.3906 147.336 17.6641 147.945 17.0078C148.555 16.3516 149.375 15.8125 150.406 15.3906C151.438 14.9531 152.734 14.7344 154.297 14.7344C156.031 14.7344 157.312 14.8281 158.141 15.0156L159.008 14.7344H160.602C160.805 16.0625 161.047 17.3047 161.328 18.4609C161.625 19.6172 161.953 20.6953 162.312 21.6953C161.641 22.3672 160.828 22.7031 159.875 22.7031C159.344 22.0781 158.852 21.5156 158.398 21.0156C157.945 20.5 157.508 20.0547 157.086 19.6797C156.68 19.3047 156.273 19 155.867 18.7656C155.477 18.5312 155.07 18.3672 154.648 18.2734C153.617 18.4453 153.102 18.9141 153.102 19.6797C153.102 20.2891 153.367 20.8203 153.898 21.2734C154.43 21.7266 155.094 22.1406 155.891 22.5156C156.688 22.8906 157.555 23.25 158.492 23.5938C159.445 23.9219 160.344 24.2734 161.188 24.6484C161.797 24.9141 162.367 25.2578 162.898 25.6797C163.445 26.1016 163.922 26.5938 164.328 27.1562C164.734 27.7031 165.055 28.3203 165.289 29.0078C165.523 29.6797 165.641 30.4062 165.641 31.1875C165.641 32.3438 165.344 33.3828 164.75 34.3047C164.172 35.2266 163.398 36.0078 162.43 36.6484C161.477 37.2891 160.383 37.7812 159.148 38.125C157.914 38.4688 156.656 38.6406 155.375 38.6406C153.172 38.6406 151.328 38.1875 149.844 37.2812ZM155.211 37.6797C157.164 37.6797 158.836 37.1016 160.227 35.9453C161.617 34.7891 162.312 33.4922 162.312 32.0547C162.312 30.6484 161.883 29.4375 161.023 28.4219C160.164 27.3906 159.125 26.5938 157.906 26.0312C156.688 25.4688 155.461 24.9531 154.227 24.4844C152.992 24 151.945 23.4375 151.086 22.7969C150.227 22.1562 149.797 21.4062 149.797 20.5469C149.797 19.4531 150.203 18.625 151.016 18.0625C151.828 17.5 152.781 17.2188 153.875 17.2188C155.031 17.2188 156.062 17.5781 156.969 18.2969C157.875 19.0156 158.984 20.1641 160.297 21.7422C160.719 21.7422 161.023 21.6406 161.211 21.4375C160.633 19.7812 159.773 18.4141 158.633 17.3359C157.508 16.2422 156.062 15.6953 154.297 15.6953C151.781 15.6953 149.977 16.2969 148.883 17.5C147.789 18.6875 147.242 20.0156 147.242 21.4844C147.242 22.7344 147.656 23.8047 148.484 24.6953C149.328 25.5703 150.336 26.25 151.508 26.7344C152.695 27.2031 153.875 27.6719 155.047 28.1406C156.219 28.6094 157.219 29.2188 158.047 29.9688C158.875 30.7188 159.289 31.625 159.289 32.6875C159.289 33.5781 158.906 34.375 158.141 35.0781C157.375 35.7812 156.305 36.1328 154.93 36.1328C153.273 36.1328 151.992 35.6094 151.086 34.5625C150.195 33.5 149.445 32.0234 148.836 30.1328C148.289 30.1328 147.922 30.1797 147.734 30.2734C147.734 31.3984 147.68 32.6875 147.57 34.1406C147.461 35.5938 147.352 36.4531 147.242 36.7188C147.352 36.875 147.5 37.0156 147.688 37.1406C148.328 36.6875 148.82 36.2109 149.164 35.7109C150.539 36.4766 151.609 36.9922 152.375 37.2578C153.156 37.5391 154.102 37.6797 155.211 37.6797ZM173.375 37.2812C172.625 37.5312 171.891 37.8359 171.172 38.1953C170.438 37.7422 169.953 37.2812 169.719 36.8125C169.75 36.7188 169.797 36.3984 169.859 35.8516C169.922 35.3047 169.984 34.6641 170.047 33.9297C170.125 33.1953 170.188 32.4375 170.234 31.6562C170.281 30.875 170.305 30.2109 170.305 29.6641C171.039 29.3203 172.172 29.1484 173.703 29.1484C173.875 29.1484 174.047 29.1484 174.219 29.1484C174.391 29.1484 174.57 29.1562 174.758 29.1719C175.883 32.8281 177.422 34.8125 179.375 35.125C180.172 35 180.781 34.7109 181.203 34.2578C181.641 33.7891 181.859 33.2656 181.859 32.6875C181.859 32.2656 181.742 31.875 181.508 31.5156C181.273 31.1406 180.961 30.7969 180.57 30.4844C180.18 30.1719 179.719 29.8828 179.188 29.6172C178.672 29.3516 178.125 29.0938 177.547 28.8438C176.969 28.5781 176.383 28.3281 175.789 28.0938C175.195 27.8438 174.625 27.5859 174.078 27.3203C173.5 27.0547 172.953 26.7344 172.438 26.3594C171.922 25.9688 171.469 25.5312 171.078 25.0469C170.688 24.5469 170.375 24 170.141 23.4062C169.922 22.8125 169.812 22.1719 169.812 21.4844C169.812 20.75 169.938 19.9844 170.188 19.1875C170.438 18.3906 170.867 17.6641 171.477 17.0078C172.086 16.3516 172.906 15.8125 173.938 15.3906C174.969 14.9531 176.266 14.7344 177.828 14.7344C179.562 14.7344 180.844 14.8281 181.672 15.0156L182.539 14.7344H184.133C184.336 16.0625 184.578 17.3047 184.859 18.4609C185.156 19.6172 185.484 20.6953 185.844 21.6953C185.172 22.3672 184.359 22.7031 183.406 22.7031C182.875 22.0781 182.383 21.5156 181.93 21.0156C181.477 20.5 181.039 20.0547 180.617 19.6797C180.211 19.3047 179.805 19 179.398 18.7656C179.008 18.5312 178.602 18.3672 178.18 18.2734C177.148 18.4453 176.633 18.9141 176.633 19.6797C176.633 20.2891 176.898 20.8203 177.43 21.2734C177.961 21.7266 178.625 22.1406 179.422 22.5156C180.219 22.8906 181.086 23.25 182.023 23.5938C182.977 23.9219 183.875 24.2734 184.719 24.6484C185.328 24.9141 185.898 25.2578 186.43 25.6797C186.977 26.1016 187.453 26.5938 187.859 27.1562C188.266 27.7031 188.586 28.3203 188.82 29.0078C189.055 29.6797 189.172 30.4062 189.172 31.1875C189.172 32.3438 188.875 33.3828 188.281 34.3047C187.703 35.2266 186.93 36.0078 185.961 36.6484C185.008 37.2891 183.914 37.7812 182.68 38.125C181.445 38.4688 180.188 38.6406 178.906 38.6406C176.703 38.6406 174.859 38.1875 173.375 37.2812ZM178.742 37.6797C180.695 37.6797 182.367 37.1016 183.758 35.9453C185.148 34.7891 185.844 33.4922 185.844 32.0547C185.844 30.6484 185.414 29.4375 184.555 28.4219C183.695 27.3906 182.656 26.5938 181.438 26.0312C180.219 25.4688 178.992 24.9531 177.758 24.4844C176.523 24 175.477 23.4375 174.617 22.7969C173.758 22.1562 173.328 21.4062 173.328 20.5469C173.328 19.4531 173.734 18.625 174.547 18.0625C175.359 17.5 176.312 17.2188 177.406 17.2188C178.562 17.2188 179.594 17.5781 180.5 18.2969C181.406 19.0156 182.516 20.1641 183.828 21.7422C184.25 21.7422 184.555 21.6406 184.742 21.4375C184.164 19.7812 183.305 18.4141 182.164 17.3359C181.039 16.2422 179.594 15.6953 177.828 15.6953C175.312 15.6953 173.508 16.2969 172.414 17.5C171.32 18.6875 170.773 20.0156 170.773 21.4844C170.773 22.7344 171.188 23.8047 172.016 24.6953C172.859 25.5703 173.867 26.25 175.039 26.7344C176.227 27.2031 177.406 27.6719 178.578 28.1406C179.75 28.6094 180.75 29.2188 181.578 29.9688C182.406 30.7188 182.82 31.625 182.82 32.6875C182.82 33.5781 182.438 34.375 181.672 35.0781C180.906 35.7812 179.836 36.1328 178.461 36.1328C176.805 36.1328 175.523 35.6094 174.617 34.5625C173.727 33.5 172.977 32.0234 172.367 30.1328C171.82 30.1328 171.453 30.1797 171.266 30.2734C171.266 31.3984 171.211 32.6875 171.102 34.1406C170.992 35.5938 170.883 36.4531 170.773 36.7188C170.883 36.875 171.031 37.0156 171.219 37.1406C171.859 36.6875 172.352 36.2109 172.695 35.7109C174.07 36.4766 175.141 36.9922 175.906 37.2578C176.688 37.5391 177.633 37.6797 178.742 37.6797Z" fill="black"/>
</svg>
