<svg width="51" height="40" viewBox="0 0 51 40" fill="none" xmlns="http://www.w3.org/2000/svg">
<path d="M8.28125 23.4453V25H2.57031V23.4453H8.28125ZM3.11719 13.625V25H1.15625V13.625H3.11719ZM9.25 20.8672V20.6875C9.25 20.0781 9.33854 19.513 9.51562 18.9922C9.69271 18.4661 9.94792 18.0104 10.2812 17.625C10.6198 17.2344 11.0312 16.9323 11.5156 16.7188C12.0052 16.5 12.5573 16.3906 13.1719 16.3906C13.7917 16.3906 14.3438 16.5 14.8281 16.7188C15.3177 16.9323 15.7318 17.2344 16.0703 17.625C16.4089 18.0104 16.6667 18.4661 16.8438 18.9922C17.0208 19.513 17.1094 20.0781 17.1094 20.6875V20.8672C17.1094 21.4766 17.0208 22.0417 16.8438 22.5625C16.6667 23.0833 16.4089 23.5391 16.0703 23.9297C15.7318 24.3151 15.3203 24.6172 14.8359 24.8359C14.3516 25.0495 13.8021 25.1562 13.1875 25.1562C12.5677 25.1562 12.013 25.0495 11.5234 24.8359C11.0391 24.6172 10.6276 24.3151 10.2891 23.9297C9.95052 23.5391 9.69271 23.0833 9.51562 22.5625C9.33854 22.0417 9.25 21.4766 9.25 20.8672ZM11.1328 20.6875V20.8672C11.1328 21.2474 11.1719 21.6068 11.25 21.9453C11.3281 22.2839 11.4505 22.5807 11.6172 22.8359C11.7839 23.0911 11.9974 23.2917 12.2578 23.4375C12.5182 23.5833 12.8281 23.6562 13.1875 23.6562C13.5365 23.6562 13.8385 23.5833 14.0938 23.4375C14.3542 23.2917 14.5677 23.0911 14.7344 22.8359C14.901 22.5807 15.0234 22.2839 15.1016 21.9453C15.1849 21.6068 15.2266 21.2474 15.2266 20.8672V20.6875C15.2266 20.3125 15.1849 19.9583 15.1016 19.625C15.0234 19.2865 14.8984 18.987 14.7266 18.7266C14.5599 18.4661 14.3464 18.263 14.0859 18.1172C13.8307 17.9661 13.526 17.8906 13.1719 17.8906C12.8177 17.8906 12.5104 17.9661 12.25 18.1172C11.9948 18.263 11.7839 18.4661 11.6172 18.7266C11.4505 18.987 11.3281 19.2865 11.25 19.625C11.1719 19.9583 11.1328 20.3125 11.1328 20.6875ZM24.1016 16.5469H25.8125V24.7656C25.8125 25.526 25.651 26.1719 25.3281 26.7031C25.0052 27.2344 24.5547 27.638 23.9766 27.9141C23.3984 28.1953 22.7292 28.3359 21.9688 28.3359C21.6458 28.3359 21.2865 28.2891 20.8906 28.1953C20.5 28.1016 20.1198 27.9505 19.75 27.7422C19.3854 27.5391 19.0807 27.2708 18.8359 26.9375L19.7188 25.8281C20.0208 26.1875 20.3542 26.4505 20.7188 26.6172C21.0833 26.7839 21.4661 26.8672 21.8672 26.8672C22.2995 26.8672 22.6667 26.7865 22.9688 26.625C23.276 26.4688 23.513 26.237 23.6797 25.9297C23.8464 25.6224 23.9297 25.2474 23.9297 24.8047V18.4609L24.1016 16.5469ZM18.3594 20.8672V20.7031C18.3594 20.0625 18.4375 19.4792 18.5938 18.9531C18.75 18.4219 18.974 17.9661 19.2656 17.5859C19.5573 17.2005 19.9115 16.9062 20.3281 16.7031C20.7448 16.4948 21.2161 16.3906 21.7422 16.3906C22.2891 16.3906 22.7552 16.4896 23.1406 16.6875C23.5312 16.8854 23.8568 17.1693 24.1172 17.5391C24.3776 17.9036 24.5807 18.3411 24.7266 18.8516C24.8776 19.3568 24.9896 19.9193 25.0625 20.5391V21.0625C24.9948 21.6667 24.8802 22.2188 24.7188 22.7188C24.5573 23.2188 24.3438 23.651 24.0781 24.0156C23.8125 24.3802 23.4844 24.6615 23.0938 24.8594C22.7083 25.0573 22.2526 25.1562 21.7266 25.1562C21.2109 25.1562 20.7448 25.0495 20.3281 24.8359C19.9167 24.6224 19.5625 24.3229 19.2656 23.9375C18.974 23.5521 18.75 23.099 18.5938 22.5781C18.4375 22.0521 18.3594 21.4818 18.3594 20.8672ZM20.2422 20.7031V20.8672C20.2422 21.2526 20.2786 21.612 20.3516 21.9453C20.4297 22.2786 20.5469 22.5729 20.7031 22.8281C20.8646 23.0781 21.0677 23.276 21.3125 23.4219C21.5625 23.5625 21.8568 23.6328 22.1953 23.6328C22.638 23.6328 23 23.5391 23.2812 23.3516C23.5677 23.1641 23.7865 22.9115 23.9375 22.5938C24.0938 22.2708 24.2031 21.9115 24.2656 21.5156V20.1016C24.2344 19.7943 24.1693 19.5078 24.0703 19.2422C23.9766 18.9766 23.849 18.7448 23.6875 18.5469C23.526 18.3438 23.3229 18.1875 23.0781 18.0781C22.8333 17.9635 22.5443 17.9062 22.2109 17.9062C21.8724 17.9062 21.5781 17.9792 21.3281 18.125C21.0781 18.2708 20.8724 18.4714 20.7109 18.7266C20.5547 18.9818 20.4375 19.2786 20.3594 19.6172C20.2812 19.9557 20.2422 20.3177 20.2422 20.7031ZM27.4062 20.8672V20.6875C27.4062 20.0781 27.4948 19.513 27.6719 18.9922C27.849 18.4661 28.1042 18.0104 28.4375 17.625C28.776 17.2344 29.1875 16.9323 29.6719 16.7188C30.1615 16.5 30.7135 16.3906 31.3281 16.3906C31.9479 16.3906 32.5 16.5 32.9844 16.7188C33.474 16.9323 33.888 17.2344 34.2266 17.625C34.5651 18.0104 34.8229 18.4661 35 18.9922C35.1771 19.513 35.2656 20.0781 35.2656 20.6875V20.8672C35.2656 21.4766 35.1771 22.0417 35 22.5625C34.8229 23.0833 34.5651 23.5391 34.2266 23.9297C33.888 24.3151 33.4766 24.6172 32.9922 24.8359C32.5078 25.0495 31.9583 25.1562 31.3438 25.1562C30.724 25.1562 30.1693 25.0495 29.6797 24.8359C29.1953 24.6172 28.7839 24.3151 28.4453 23.9297C28.1068 23.5391 27.849 23.0833 27.6719 22.5625C27.4948 22.0417 27.4062 21.4766 27.4062 20.8672ZM29.2891 20.6875V20.8672C29.2891 21.2474 29.3281 21.6068 29.4062 21.9453C29.4844 22.2839 29.6068 22.5807 29.7734 22.8359C29.9401 23.0911 30.1536 23.2917 30.4141 23.4375C30.6745 23.5833 30.9844 23.6562 31.3438 23.6562C31.6927 23.6562 31.9948 23.5833 32.25 23.4375C32.5104 23.2917 32.724 23.0911 32.8906 22.8359C33.0573 22.5807 33.1797 22.2839 33.2578 21.9453C33.3411 21.6068 33.3828 21.2474 33.3828 20.8672V20.6875C33.3828 20.3125 33.3411 19.9583 33.2578 19.625C33.1797 19.2865 33.0547 18.987 32.8828 18.7266C32.7161 18.4661 32.5026 18.263 32.2422 18.1172C31.987 17.9661 31.6823 17.8906 31.3281 17.8906C30.974 17.8906 30.6667 17.9661 30.4062 18.1172C30.151 18.263 29.9401 18.4661 29.7734 18.7266C29.6068 18.987 29.4844 19.2865 29.4062 19.625C29.3281 19.9583 29.2891 20.3125 29.2891 20.6875ZM41.9297 23.0078V16.5469H43.8203V25H42.0391L41.9297 23.0078ZM42.1953 21.25L42.8281 21.2344C42.8281 21.8021 42.7656 22.3255 42.6406 22.8047C42.5156 23.2786 42.3229 23.6927 42.0625 24.0469C41.8021 24.3958 41.4688 24.6693 41.0625 24.8672C40.6562 25.0599 40.1693 25.1562 39.6016 25.1562C39.1901 25.1562 38.8125 25.0964 38.4688 24.9766C38.125 24.8568 37.8281 24.6719 37.5781 24.4219C37.3333 24.1719 37.1432 23.8464 37.0078 23.4453C36.8724 23.0443 36.8047 22.5651 36.8047 22.0078V16.5469H38.6875V22.0234C38.6875 22.3307 38.724 22.5885 38.7969 22.7969C38.8698 23 38.9688 23.1641 39.0938 23.2891C39.2188 23.4141 39.3646 23.5026 39.5312 23.5547C39.6979 23.6068 39.875 23.6328 40.0625 23.6328C40.599 23.6328 41.0208 23.5286 41.3281 23.3203C41.6406 23.1068 41.862 22.8203 41.9922 22.4609C42.1276 22.1016 42.1953 21.6979 42.1953 21.25ZM49.625 16.5469V17.9219H44.8594V16.5469H49.625ZM46.2344 14.4766H48.1172V22.6641C48.1172 22.9245 48.1536 23.125 48.2266 23.2656C48.3047 23.401 48.4115 23.4922 48.5469 23.5391C48.6823 23.5859 48.8411 23.6094 49.0234 23.6094C49.1536 23.6094 49.2786 23.6016 49.3984 23.5859C49.5182 23.5703 49.6146 23.5547 49.6875 23.5391L49.6953 24.9766C49.5391 25.0234 49.3568 25.0651 49.1484 25.1016C48.9453 25.138 48.7109 25.1562 48.4453 25.1562C48.013 25.1562 47.6302 25.0807 47.2969 24.9297C46.9635 24.7734 46.7031 24.5208 46.5156 24.1719C46.3281 23.8229 46.2344 23.3594 46.2344 22.7812V14.4766Z" fill="#6D6D6D"/>
</svg>
