<svg width="386" height="96" viewBox="0 0 386 96" fill="none" xmlns="http://www.w3.org/2000/svg">
<path d="M5.776 88.192C4.432 88.192 3.28 87.392 2.32 85.792C1.36 84.192 0.88 80.992 0.88 76.192C0.88 71.776 1.2 66.24 1.84 59.584C2.544 52.864 3.568 45.44 4.912 37.312C5.616 33.6 6.928 30.528 8.848 28.096C10.832 25.664 13.392 23.616 16.528 21.952C19.728 20.288 23.472 18.816 27.76 17.536C32.048 16.256 36.464 15.104 41.008 14.08C45.616 12.992 49.936 12.128 53.968 11.488C58.064 10.784 61.424 10.432 64.048 10.432C65.904 10.432 67.312 10.816 68.272 11.584C69.232 12.352 69.712 13.152 69.712 13.984C69.712 14.752 69.488 15.424 69.04 16C68.656 16.512 67.888 16.928 66.736 17.248C65.904 17.504 64.144 17.952 61.456 18.592C58.832 19.168 55.6 19.872 51.76 20.704C47.984 21.536 43.984 22.432 39.76 23.392C35.536 24.288 31.44 25.216 27.472 26.176C22.928 27.456 19.632 29.088 17.584 31.072C15.6 32.992 14.288 35.712 13.648 39.232C13.52 40.128 13.328 41.44 13.072 43.168C14.864 42.464 17.104 41.696 19.792 40.864C22.48 40.032 25.232 39.232 28.048 38.464C30.864 37.696 33.456 37.088 35.824 36.64C38.192 36.128 39.952 35.872 41.104 35.872C41.936 35.872 42.8 36.384 43.696 37.408C44.656 38.432 45.136 39.488 45.136 40.576C45.136 41.088 44.976 41.6 44.656 42.112C44.336 42.56 43.792 42.912 43.024 43.168C42.576 43.296 41.456 43.616 39.664 44.128C37.936 44.576 35.824 45.152 33.328 45.856C30.896 46.56 28.336 47.328 25.648 48.16C22.96 48.928 20.4 49.664 17.968 50.368C15.6 51.072 13.616 51.68 12.016 52.192C11.696 55.264 11.344 58.464 10.96 61.792C10.576 65.12 10.224 68.288 9.904 71.296C9.648 74.24 9.424 76.768 9.232 78.88C9.04 80.928 8.944 82.24 8.944 82.816C8.944 86.4 7.888 88.192 5.776 88.192ZM60.6588 90.496C58.2268 90.496 56.2108 89.376 54.6108 87.136C53.0748 84.832 52.3068 81.856 52.3068 78.208C52.3068 74.816 53.1388 71.456 54.8028 68.128C56.5308 64.8 58.8028 61.6 61.6188 58.528C64.4348 55.456 67.5068 52.64 70.8348 50.08C74.1628 47.456 77.4908 45.184 80.8188 43.264C84.2108 41.344 87.3148 39.84 90.1308 38.752C92.9468 37.664 95.1868 37.12 96.8508 37.12C97.7468 37.12 98.4828 37.312 99.0588 37.696C99.6348 38.016 99.9228 38.624 99.9228 39.52C99.9228 40.096 99.6988 40.64 99.2508 41.152C99.3148 41.152 99.3788 41.152 99.4428 41.152C100.851 41.152 101.555 41.984 101.555 43.648C101.555 44.224 101.331 45.408 100.883 47.2C100.435 48.928 99.9228 51.104 99.3468 53.728C98.7708 56.352 98.2588 59.264 97.8108 62.464C97.3628 65.6 97.1388 68.8 97.1388 72.064C97.1388 74.816 98.1948 76.192 100.307 76.192C102.675 76.192 105.075 75.648 107.507 74.56C109.939 73.472 112.307 72.16 114.611 70.624C116.915 69.024 119.027 67.456 120.947 65.92C122.867 64.32 124.499 62.976 125.843 61.888C127.187 60.8 128.147 60.256 128.723 60.256C129.235 60.256 129.683 60.416 130.067 60.736C130.451 61.056 130.643 61.568 130.643 62.272C130.643 62.912 130.003 64.064 128.723 65.728C127.443 67.392 125.747 69.28 123.635 71.392C121.523 73.504 119.155 75.552 116.531 77.536C113.907 79.52 111.219 81.152 108.467 82.432C105.715 83.712 103.091 84.352 100.595 84.352C98.6748 84.352 96.9148 83.776 95.3148 82.624C93.7788 81.408 92.5308 79.36 91.5708 76.48C90.6748 73.6 90.2268 69.632 90.2268 64.576V62.176C87.0908 67.36 83.7948 72.096 80.3388 76.384C76.9468 80.672 73.5548 84.096 70.1628 86.656C66.8348 89.216 63.6668 90.496 60.6588 90.496ZM95.0268 44.032C94.7068 44.16 94.2588 44.352 93.6828 44.608C90.7388 45.952 87.6668 47.616 84.4668 49.6C81.3308 51.584 78.2588 53.792 75.2508 56.224C72.3068 58.656 69.6508 61.184 67.2828 63.808C64.9148 66.432 63.0268 69.088 61.6188 71.776C60.2108 74.464 59.5068 77.088 59.5068 79.648C59.5068 80.48 59.6668 81.12 59.9868 81.568C60.3708 82.016 61.0108 82.24 61.9068 82.24C63.1868 82.24 64.8508 81.44 66.8988 79.84C68.9468 78.176 71.1868 76 73.6188 73.312C76.1148 70.624 78.6108 67.648 81.1068 64.384C83.6028 61.12 85.9708 57.824 88.2108 54.496C90.5148 51.168 92.4988 48.096 94.1628 45.28C94.4188 44.832 94.7068 44.416 95.0268 44.032ZM128.442 88.48C127.226 88.48 126.138 88.032 125.178 87.136C124.218 86.176 123.738 84.704 123.738 82.72C123.738 81.312 123.93 79.36 124.314 76.864C124.698 74.304 125.21 71.52 125.85 68.512C126.49 65.504 127.162 62.528 127.866 59.584C128.634 56.576 129.402 53.888 130.17 51.52C130.938 49.152 131.61 47.392 132.186 46.24C132.698 45.344 133.178 44.768 133.626 44.512C134.138 44.256 134.618 44.128 135.066 44.128C135.962 44.128 136.73 44.416 137.37 44.992C138.074 45.568 138.426 46.688 138.426 48.352C138.426 49.312 138.234 50.912 137.85 53.152C137.53 55.328 137.082 57.888 136.506 60.832C135.994 63.712 135.418 66.688 134.778 69.76C134.202 72.768 133.626 75.648 133.049 78.4C132.474 81.152 132.026 83.456 131.706 85.312C131.45 86.336 131.002 87.136 130.362 87.712C129.786 88.224 129.146 88.48 128.442 88.48ZM137.85 35.392C136.378 35.392 134.97 34.944 133.626 34.048C132.346 33.152 131.706 31.712 131.706 29.728C131.706 28.064 132.09 26.72 132.858 25.696C133.69 24.672 134.65 23.936 135.738 23.488C136.89 22.976 137.882 22.72 138.714 22.72C139.546 22.72 140.474 22.912 141.498 23.296C142.586 23.616 143.514 24.256 144.281 25.216C145.05 26.112 145.434 27.456 145.434 29.248C145.434 30.464 145.018 31.552 144.186 32.512C143.354 33.408 142.33 34.112 141.114 34.624C139.962 35.136 138.874 35.392 137.85 35.392ZM169.859 91.84C164.932 91.84 161.06 90.24 158.244 87.04C155.492 83.776 154.116 79.232 154.116 73.408C154.116 69.824 154.596 65.632 155.556 60.832C156.58 55.968 157.86 50.848 159.396 45.472C160.996 40.032 162.724 34.656 164.58 29.344C166.436 24.032 168.228 19.104 169.956 14.56C171.748 9.952 173.316 6.112 174.66 3.04C175.428 1.31199 176.516 0.447994 177.924 0.447994C179.844 0.447994 180.804 1.63199 180.804 3.99999C180.804 4.768 180.452 6.336 179.748 8.704C179.044 11.072 178.116 14.016 176.964 17.536C175.812 20.992 174.564 24.832 173.22 29.056C171.876 33.28 170.5 37.632 169.092 42.112C167.748 46.528 166.5 50.912 165.348 55.264C164.196 59.552 163.268 63.584 162.564 67.36C161.86 71.136 161.508 74.368 161.508 77.056C161.508 78.784 161.956 80.16 162.852 81.184C163.812 82.144 165.092 82.624 166.692 82.624C169.636 82.624 172.58 82.048 175.524 80.896C178.532 79.68 181.412 78.208 184.164 76.48C186.916 74.688 189.412 72.928 191.652 71.2C193.956 69.408 195.908 67.936 197.508 66.784C199.108 65.568 200.228 64.96 200.868 64.96C202.276 64.96 202.98 65.728 202.98 67.264C202.98 67.776 202.468 68.736 201.444 70.144C200.42 71.488 199.044 73.088 197.316 74.944C195.588 76.8 193.572 78.72 191.268 80.704C189.028 82.624 186.66 84.448 184.164 86.176C181.732 87.84 179.268 89.184 176.772 90.208C174.34 91.296 172.036 91.84 169.859 91.84ZM214.297 91.84C209.369 91.84 205.497 90.24 202.681 87.04C199.929 83.776 198.553 79.232 198.553 73.408C198.553 69.824 199.033 65.632 199.993 60.832C201.017 55.968 202.297 50.848 203.833 45.472C205.433 40.032 207.161 34.656 209.017 29.344C210.873 24.032 212.665 19.104 214.393 14.56C216.185 9.952 217.753 6.112 219.097 3.04C219.865 1.31199 220.953 0.447994 222.361 0.447994C224.281 0.447994 225.241 1.63199 225.241 3.99999C225.241 4.768 224.889 6.336 224.185 8.704C223.481 11.072 222.553 14.016 221.401 17.536C220.249 20.992 219.001 24.832 217.657 29.056C216.313 33.28 214.937 37.632 213.529 42.112C212.185 46.528 210.937 50.912 209.785 55.264C208.633 59.552 207.705 63.584 207.001 67.36C206.297 71.136 205.945 74.368 205.945 77.056C205.945 78.784 206.393 80.16 207.289 81.184C208.249 82.144 209.529 82.624 211.129 82.624C214.073 82.624 217.017 82.048 219.961 80.896C222.969 79.68 225.849 78.208 228.601 76.48C231.353 74.688 233.849 72.928 236.089 71.2C238.393 69.408 240.345 67.936 241.945 66.784C243.545 65.568 244.665 64.96 245.305 64.96C246.713 64.96 247.417 65.728 247.417 67.264C247.417 67.776 246.905 68.736 245.881 70.144C244.857 71.488 243.481 73.088 241.753 74.944C240.025 76.8 238.009 78.72 235.705 80.704C233.465 82.624 231.097 84.448 228.601 86.176C226.169 87.84 223.705 89.184 221.209 90.208C218.777 91.296 216.473 91.84 214.297 91.84ZM281.306 46.624C281.306 48.672 280.666 50.688 279.386 52.672C278.106 54.592 276.41 56.448 274.298 58.24C272.186 59.968 269.85 61.6 267.29 63.136C264.73 64.672 262.17 66.016 259.61 67.168C257.05 68.32 254.714 69.248 252.602 69.952C252.09 72.448 251.834 74.656 251.834 76.576C251.834 77.792 252.122 78.656 252.698 79.168C253.274 79.68 254.17 79.936 255.386 79.936C258.074 79.936 260.922 79.456 263.93 78.496C266.938 77.536 270.01 76.288 273.146 74.752C276.282 73.216 279.29 71.584 282.17 69.856C285.05 68.128 287.674 66.496 290.042 64.96C292.474 63.424 294.49 62.176 296.09 61.216C297.69 60.256 298.746 59.776 299.258 59.776C300.026 59.776 300.602 60.032 300.986 60.544C301.434 60.992 301.658 61.536 301.658 62.176C301.658 62.688 300.858 63.68 299.258 65.152C297.722 66.624 295.642 68.352 293.018 70.336C290.394 72.256 287.45 74.24 284.186 76.288C280.922 78.336 277.53 80.256 274.01 82.048C270.554 83.84 267.194 85.28 263.93 86.368C260.73 87.456 257.85 88 255.29 88C251.962 88 249.37 86.752 247.514 84.256C245.658 81.76 244.73 77.888 244.73 72.64C244.73 69.12 245.178 65.568 246.074 61.984C247.034 58.4 248.314 54.976 249.914 51.712C251.578 48.384 253.402 45.44 255.386 42.88C257.434 40.256 259.578 38.208 261.818 36.736C264.058 35.2 266.234 34.432 268.346 34.432C272.378 34.432 275.546 35.552 277.85 37.792C280.154 40.032 281.306 42.976 281.306 46.624ZM254.618 62.56C256.602 61.344 258.65 60.064 260.762 58.72C262.874 57.376 264.826 56 266.618 54.592C268.41 53.184 269.85 51.712 270.938 50.176C272.09 48.576 272.666 46.944 272.666 45.28C272.666 42.912 271.386 41.728 268.826 41.728C267.226 41.728 265.53 42.752 263.738 44.8C262.01 46.784 260.346 49.376 258.746 52.576C257.146 55.776 255.77 59.104 254.618 62.56ZM364.352 95.2C361.856 95.2 360.256 94.88 359.552 94.24C358.848 93.664 358.496 93.056 358.496 92.416C358.496 91.712 358.784 91.008 359.36 90.304C359.936 89.664 360.608 89.12 361.376 88.672C362.784 87.776 364.16 86.816 365.504 85.792C366.912 84.768 368.064 83.712 368.96 82.624C369.856 81.472 370.304 80.352 370.304 79.264C370.304 78.368 369.632 77.44 368.288 76.48C366.944 75.456 365.248 74.368 363.2 73.216C361.216 72.064 359.2 70.784 357.152 69.376C355.168 67.968 353.504 66.432 352.16 64.768C350.816 63.04 350.144 61.12 350.144 59.008C350.144 57.984 350.272 56.928 350.528 55.84C348.096 57.184 345.664 58.56 343.232 59.968C340.864 61.312 338.56 62.592 336.32 63.808C336.32 66.944 335.68 70.048 334.4 73.12C333.12 76.128 331.424 78.88 329.312 81.376C327.2 83.872 324.832 85.856 322.208 87.328C319.648 88.8 317.056 89.536 314.432 89.536C311.424 89.536 309.12 88.8 307.52 87.328C305.92 85.792 305.12 83.936 305.12 81.76C305.12 78.944 305.888 76.544 307.424 74.56C308.96 72.512 311.232 70.624 314.24 68.896C315.584 68.064 317.472 66.944 319.904 65.536C322.4 64.064 325.216 62.464 328.352 60.736C327.712 59.584 326.4 59.008 324.416 59.008C323.648 59.008 322.4 59.264 320.672 59.776C318.944 60.288 316.96 60.928 314.72 61.696C312.544 62.464 310.304 63.264 308 64.096C305.76 64.864 303.68 65.504 301.76 66.016C299.904 66.528 298.432 66.784 297.344 66.784C294.976 66.784 293.152 66.176 291.872 64.96C290.656 63.68 290.048 62.08 290.048 60.16C290.048 58.496 290.784 56.48 292.256 54.112C293.792 51.744 295.744 49.28 298.112 46.72C300.544 44.16 303.104 41.76 305.792 39.52C308.48 37.28 311.04 35.456 313.472 34.048C315.904 32.64 317.92 31.936 319.52 31.936C320.864 31.936 321.888 32.416 322.592 33.376C323.36 34.336 323.744 35.584 323.744 37.12C323.744 38.464 323.168 39.584 322.016 40.48C320.928 41.376 318.944 41.856 316.064 41.92C314.848 42.752 313.28 43.936 311.36 45.472C309.504 46.944 307.648 48.512 305.792 50.176C304 51.84 302.464 53.408 301.184 54.88C299.968 56.352 299.36 57.472 299.36 58.24C299.36 58.752 299.68 59.008 300.32 59.008C300.96 59.008 302.144 58.688 303.872 58.048C305.664 57.344 307.744 56.576 310.112 55.744C312.544 54.912 315.04 54.176 317.6 53.536C320.16 52.832 322.528 52.48 324.704 52.48C329.504 52.48 332.832 54.016 334.688 57.088C338.08 55.232 341.536 53.312 345.056 51.328C348.64 49.344 352.096 47.392 355.424 45.472C357.792 42.336 360.576 39.456 363.776 36.832C367.04 34.144 370.304 32 373.568 30.4C376.832 28.8 379.712 28 382.208 28C383.296 28 384.128 28.32 384.704 28.96C385.344 29.536 385.664 30.208 385.664 30.976C385.664 31.552 385.472 32.192 385.088 32.896C384.768 33.6 383.872 34.592 382.4 35.872C380.928 37.088 378.464 38.816 375.008 41.056C373.088 42.336 371.008 43.68 368.768 45.088C366.528 46.432 364.16 47.84 361.664 49.312C360.576 50.848 359.68 52.416 358.976 54.016C358.336 55.552 358.016 57.088 358.016 58.624C358.016 59.968 358.688 61.216 360.032 62.368C361.376 63.456 363.04 64.576 365.024 65.728C367.008 66.88 368.96 68.128 370.88 69.472C372.864 70.816 374.528 72.352 375.872 74.08C377.216 75.808 377.888 77.824 377.888 80.128C377.888 81.792 377.472 83.52 376.64 85.312C375.808 87.04 374.72 88.64 373.376 90.112C372.096 91.648 370.656 92.864 369.056 93.76C367.456 94.72 365.888 95.2 364.352 95.2ZM327.2 68.992C324.96 70.272 322.976 71.424 321.248 72.448C319.52 73.408 318.144 74.208 317.12 74.848C316.032 75.552 315.104 76.32 314.336 77.152C313.632 77.92 313.28 78.912 313.28 80.128C313.28 80.704 313.44 81.216 313.76 81.664C314.08 82.048 314.56 82.24 315.2 82.24C316.736 82.24 318.272 81.568 319.808 80.224C321.344 78.816 322.752 77.088 324.032 75.04C325.312 72.992 326.368 70.976 327.2 68.992Z" fill="black"/>
</svg>
