<svg width="20" height="20" viewBox="0 0 20 20" fill="none" xmlns="http://www.w3.org/2000/svg">
<rect width="20" height="20" rx="10" fill="#D9D9D9"/>
<path fill-rule="evenodd" clip-rule="evenodd" d="M10 5C8.61929 5 7.5 6.11929 7.5 7.5C7.5 8.88071 8.61929 10 10 10C11.3807 10 12.5 8.88071 12.5 7.5C12.5 6.11929 11.3807 5 10 5ZM8.5 7.5C8.5 6.67157 9.17157 6 10 6C10.8284 6 11.5 6.67157 11.5 7.5C11.5 8.32843 10.8284 9 10 9C9.17157 9 8.5 8.32843 8.5 7.5Z" fill="#2D3648"/>
<path d="M8 11C7.33696 11 6.70107 11.2634 6.23223 11.7322C5.76339 12.2011 5.5 12.837 5.5 13.5V14.5C5.5 14.7761 5.72386 15 6 15C6.27614 15 6.5 14.7761 6.5 14.5V13.5C6.5 13.1022 6.65804 12.7206 6.93934 12.4393C7.22064 12.158 7.60218 12 8 12H12C12.3978 12 12.7794 12.158 13.0607 12.4393C13.342 12.7206 13.5 13.1022 13.5 13.5V14.5C13.5 14.7761 13.7239 15 14 15C14.2761 15 14.5 14.7761 14.5 14.5V13.5C14.5 12.837 14.2366 12.2011 13.7678 11.7322C13.2989 11.2634 12.663 11 12 11H8Z" fill="#2D3648"/>
</svg>
